# xmcd
#
# Track frame offsets: 
#        150
#        13693
#        31983
#        44456
#        60446
#        73968
#        87853
#        106128
#        118478
#        133528
#        153881
#        177674
#        200288
#        216322
#        233087
#        246703
#        263787
#        283533
#
# Disc length: 4005 seconds
#
# Revision: 1
# Processed by: cddbd v1.5.2PL0 Copyright (c) Steve Scherf et al.
# Submitted via: ExactAudioCopy v1.0b3
#
DISCID=0c0fa312
DTITLE=GARO - GOLDEN☆BEST GARO～アンソロジー1971-1977～ Blu-spec CD Disc 2 MHC
DTITLE=L-20070-1
DYEAR=2002
DGENRE=JPop
TTITLE0=ピクニック
TTITLE1=西行き列車
TTITLE2=公園通り
TTITLE3=ビートルズはもう聞かない
TTITLE4=惑
TTITLE5=一本の煙草 (SINGLE MIX)
TTITLE6=吟遊詩人 (SINGLE VERSION)
TTITLE7=さいごの手紙
TTITLE8=青春の旅路
TTITLE9=風の館
TTITLE10=眠い夜明け
TTITLE11=銀河旅行
TTITLE12=時の流れに
TTITLE13=My City Girl
TTITLE14=夏の終り
TTITLE15=空に星があるように
TTITLE16=ラブソングはいらない
TTITLE17=さよなら
EXTD=YEAR: 2002
EXTT0=
EXTT1=
EXTT2=
EXTT3=
EXTT4=
EXTT5=
EXTT6=
EXTT7=
EXTT8=
EXTT9=
EXTT10=
EXTT11=
EXTT12=
EXTT13=
EXTT14=
EXTT15=
EXTT16=
EXTT17=
PLAYORDER=
